# xmcd
#
# Track frame offsets: 
#        150
#        17020
#        31255
#        44822
#
# Disc length: 868 seconds
#
# Revision: 0
# Processed by: cddbd v1.5.2PL0 Copyright (c) Steve Scherf et al.
# Submitted via: ExactAudioCopy v0.99pb3
#
DISCID=2c036204
DTITLE=Picture Of Her Soul - Cool Jerks
DYEAR=1994
DGENRE=Soul
TTITLE0=Merry Christmas Baby
TTITLE1=Call You Mine
TTITLE2=Place With No Name
TTITLE3=Picture Of Her Soul
EXTD=
EXTT0=
EXTT1=
EXTT2=
EXTT3=
PLAYORDER=
